{"accessors": [{"bufferView": 0, "componentType": 5126, "count": 2604, "max": [1.492014765739441, 0.9866488575935364, 0.015654049813747406], "min": [-1.492014765739441, -0.9866488575935364, -0.015159047208726406], "type": "VEC3"}, {"bufferView": 1, "componentType": 5126, "count": 2604, "type": "VEC3"}, {"bufferView": 2, "componentType": 5126, "count": 2604, "type": "VEC2"}, {"bufferView": 3, "componentType": 5125, "count": 2604, "type": "SCALAR"}, {"bufferView": 4, "componentType": 5126, "count": 20, "max": [-0.2536163628101349, 1.0967754125595093, 0.4442271292209625], "min": [-0.5, -1.0967754125595093, -0.4442271292209625], "type": "VEC3"}, {"bufferView": 5, "componentType": 5126, "count": 20, "type": "VEC3"}, {"bufferView": 6, "componentType": 5126, "count": 20, "type": "VEC2"}, {"bufferView": 7, "componentType": 5125, "count": 30, "type": "SCALAR"}, {"bufferView": 8, "componentType": 5126, "count": 16, "max": [1.0, 0.0, 1.0], "min": [-1.0, 0.0, -1.0], "type": "VEC3"}, {"bufferView": 9, "componentType": 5126, "count": 16, "type": "VEC3"}, {"bufferView": 10, "componentType": 5126, "count": 16, "type": "VEC2"}, {"bufferView": 11, "componentType": 5125, "count": 24, "type": "SCALAR"}, {"bufferView": 12, "componentType": 5126, "count": 32, "max": [2.9696600437164307, 1.0967754125595093, 0.4442271292209625], "min": [-0.5, -1.096775770187378, -0.4442271292209625], "type": "VEC3"}, {"bufferView": 13, "componentType": 5126, "count": 32, "type": "VEC3"}, {"bufferView": 14, "componentType": 5126, "count": 32, "type": "VEC2"}, {"bufferView": 15, "componentType": 5125, "count": 48, "type": "SCALAR"}, {"bufferView": 16, "componentType": 5126, "count": 20, "max": [-0.2536163628101349, 0.4790346920490265, 0.1365927904844284], "min": [-0.5, -0.4790346920490265, -0.1365927904844284], "type": "VEC3"}, {"bufferView": 17, "componentType": 5126, "count": 20, "type": "VEC3"}, {"bufferView": 18, "componentType": 5126, "count": 20, "type": "VEC2"}, {"bufferView": 19, "componentType": 5125, "count": 30, "type": "SCALAR"}, {"bufferView": 20, "componentType": 5126, "count": 16, "max": [1.6116381883621216, 1.0967756509780884, 0.17746546864509583], "min": [-1.6116381883621216, -1.0967755317687988, -0.17746540904045105], "type": "VEC3"}, {"bufferView": 21, "componentType": 5126, "count": 16, "type": "VEC3"}, {"bufferView": 22, "componentType": 5126, "count": 16, "type": "VEC2"}, {"bufferView": 23, "componentType": 5125, "count": 24, "type": "SCALAR"}, {"bufferView": 24, "componentType": 5126, "count": 76, "max": [2.6948509216308594, 1.0967756509780884, 2.79693341255188], "min": [-0.5484788417816162, -1.0967755317687988, -0.17746540904045105], "type": "VEC3"}, {"bufferView": 25, "componentType": 5126, "count": 76, "type": "VEC3"}, {"bufferView": 26, "componentType": 5126, "count": 76, "type": "VEC2"}, {"bufferView": 27, "componentType": 5125, "count": 114, "type": "SCALAR"}, {"bufferView": 28, "componentType": 5126, "count": 24, "max": [1.830201268196106, 1.0909838676452637, 4.084421634674072], "min": [-0.5, -0.5000004172325134, -1.2414872646331787], "type": "VEC3"}, {"bufferView": 29, "componentType": 5126, "count": 24, "type": "VEC3"}, {"bufferView": 30, "componentType": 5126, "count": 24, "type": "VEC2"}, {"bufferView": 31, "componentType": 5125, "count": 36, "type": "SCALAR"}, {"bufferView": 32, "componentType": 5126, "count": 20, "max": [0.4755282402038574, 0.49335741996765137, 0.5], "min": [-0.5124770402908325, -0.5, -0.5113855004310608], "type": "VEC3"}, {"bufferView": 33, "componentType": 5126, "count": 20, "type": "VEC3"}, {"bufferView": 34, "componentType": 5126, "count": 20, "type": "VEC2"}, {"bufferView": 35, "componentType": 5125, "count": 30, "type": "SCALAR"}, {"bufferView": 36, "componentType": 5126, "count": 20, "max": [0.4755282402038574, 0.49335741996765137, 0.5], "min": [-0.5124770402908325, -0.5, -0.5113855004310608], "type": "VEC3"}, {"bufferView": 37, "componentType": 5126, "count": 20, "type": "VEC3"}, {"bufferView": 38, "componentType": 5126, "count": 20, "type": "VEC2"}, {"bufferView": 39, "componentType": 5125, "count": 30, "type": "SCALAR"}, {"bufferView": 40, "componentType": 5126, "count": 24, "max": [0.5, 0.5, 0.5], "min": [-0.5, -0.5, -0.5], "type": "VEC3"}, {"bufferView": 41, "componentType": 5126, "count": 24, "type": "VEC3"}, {"bufferView": 42, "componentType": 5126, "count": 24, "type": "VEC2"}, {"bufferView": 43, "componentType": 5125, "count": 36, "type": "SCALAR"}, {"bufferView": 44, "componentType": 5126, "count": 24, "max": [0.5, 0.5, 0.5], "min": [-0.5, -0.5, -0.5], "type": "VEC3"}, {"bufferView": 45, "componentType": 5126, "count": 24, "type": "VEC3"}, {"bufferView": 46, "componentType": 5126, "count": 24, "type": "VEC2"}, {"bufferView": 47, "componentType": 5125, "count": 36, "type": "SCALAR"}], "asset": {"generator": "Prisma3D Pro", "version": "2.0"}, "bufferViews": [{"buffer": 0, "byteLength": 31248, "target": 34962}, {"buffer": 1, "byteLength": 31248, "target": 34962}, {"buffer": 2, "byteLength": 20832, "target": 34962}, {"buffer": 3, "byteLength": 10416, "target": 34963}, {"buffer": 4, "byteLength": 240, "target": 34962}, {"buffer": 5, "byteLength": 240, "target": 34962}, {"buffer": 6, "byteLength": 160, "target": 34962}, {"buffer": 7, "byteLength": 120, "target": 34963}, {"buffer": 8, "byteLength": 192, "target": 34962}, {"buffer": 9, "byteLength": 192, "target": 34962}, {"buffer": 10, "byteLength": 128, "target": 34962}, {"buffer": 11, "byteLength": 96, "target": 34963}, {"buffer": 12, "byteLength": 384, "target": 34962}, {"buffer": 13, "byteLength": 384, "target": 34962}, {"buffer": 14, "byteLength": 256, "target": 34962}, {"buffer": 15, "byteLength": 192, "target": 34963}, {"buffer": 16, "byteLength": 240, "target": 34962}, {"buffer": 17, "byteLength": 240, "target": 34962}, {"buffer": 18, "byteLength": 160, "target": 34962}, {"buffer": 19, "byteLength": 120, "target": 34963}, {"buffer": 20, "byteLength": 192, "target": 34962}, {"buffer": 21, "byteLength": 192, "target": 34962}, {"buffer": 22, "byteLength": 128, "target": 34962}, {"buffer": 23, "byteLength": 96, "target": 34963}, {"buffer": 24, "byteLength": 912, "target": 34962}, {"buffer": 25, "byteLength": 912, "target": 34962}, {"buffer": 26, "byteLength": 608, "target": 34962}, {"buffer": 27, "byteLength": 456, "target": 34963}, {"buffer": 28, "byteLength": 288, "target": 34962}, {"buffer": 29, "byteLength": 288, "target": 34962}, {"buffer": 30, "byteLength": 192, "target": 34962}, {"buffer": 31, "byteLength": 144, "target": 34963}, {"buffer": 32, "byteLength": 240, "target": 34962}, {"buffer": 33, "byteLength": 240, "target": 34962}, {"buffer": 34, "byteLength": 160, "target": 34962}, {"buffer": 35, "byteLength": 120, "target": 34963}, {"buffer": 36, "byteLength": 240, "target": 34962}, {"buffer": 37, "byteLength": 240, "target": 34962}, {"buffer": 38, "byteLength": 160, "target": 34962}, {"buffer": 39, "byteLength": 120, "target": 34963}, {"buffer": 40, "byteLength": 288, "target": 34962}, {"buffer": 41, "byteLength": 288, "target": 34962}, {"buffer": 42, "byteLength": 192, "target": 34962}, {"buffer": 43, "byteLength": 144, "target": 34963}, {"buffer": 44, "byteLength": 288, "target": 34962}, {"buffer": 45, "byteLength": 288, "target": 34962}, {"buffer": 46, "byteLength": 192, "target": 34962}, {"buffer": 47, "byteLength": 144, "target": 34963}], "buffers": [{"byteLength": 31248, "uri": "data:application/octet-stream;base64,"}, {"byteLength": 31248, "uri": "data:application/octet-stream;base64,"}, {"byteLength": 20832, "uri": "data:application/octet-stream;base64,"}, {"byteLength": 10416, "uri": "data:application/octet-stream;base64,"}, {"byteLength": 240, "uri": "data:application/octet-stream;base64,"}, {"byteLength": 240, "uri": "data:application/octet-stream;base64,"}, {"byteLength": 160, "uri": "data:application/octet-stream;base64,"}, {"byteLength": 120, "uri": "data:application/octet-stream;base64,"}, {"byteLength": 192, "uri": "data:application/octet-stream;base64,"}, {"byteLength": 192, "uri": "data:application/octet-stream;base64,"}, {"byteLength": 128, "uri": "data:application/octet-stream;base64,"}, {"byteLength": 96, "uri": "data:application/octet-stream;base64,"}, {"byteLength": 384, "uri": "data:application/octet-stream;base64,"}, {"byteLength": 384, "uri": "data:application/octet-stream;base64,"}, {"byteLength": 256, "uri": "data:application/octet-stream;base64,"}, {"byteLength": 192, "uri": "data:application/octet-stream;base64,"}, {"byteLength": 240, "uri": "data:application/octet-stream;base64,"}, {"byteLength": 240, "uri": "data:application/octet-stream;base64,"}, {"byteLength": 160, "uri": "data:application/octet-stream;base64,"}, {"byteLength": 120, "uri": "data:application/octet-stream;base64,"}, {"byteLength": 192, "uri": "data:application/octet-stream;base64,"}, {"byteLength": 192, "uri": "data:application/octet-stream;base64,"}, {"byteLength": 128, "uri": "data:application/octet-stream;base64,"}, {"byteLength": 96, "uri": "data:application/octet-stream;base64,"}, {"byteLength": 912, "uri": "data:application/octet-stream;base64,"}, {"byteLength": 912, "uri": "data:application/octet-stream;base64,"}, {"byteLength": 608, "uri": "data:application/octet-stream;base64,"}, {"byteLength": 456, "uri": "data:application/octet-stream;base64,"}, {"byteLength": 288, "uri": "data:application/octet-stream;base64,"}, {"byteLength": 288, "uri": "data:application/octet-stream;base64,"}, {"byteLength": 192, "uri": "data:application/octet-stream;base64,"}, {"byteLength": 144, "uri": "data:application/octet-stream;base64,"}, {"byteLength": 240, "uri": "data:application/octet-stream;base64,"}, {"byteLength": 240, "uri": "data:application/octet-stream;base64,"}, {"byteLength": 160, "uri": "data:application/octet-stream;base64,"}, {"byteLength": 120, "uri": "data:application/octet-stream;base64,"}, {"byteLength": 240, "uri": "data:application/octet-stream;base64,"}, {"byteLength": 240, "uri": "data:application/octet-stream;base64,"}, {"byteLength": 160, "uri": "data:application/octet-stream;base64,"}, {"byteLength": 120, "uri": "data:application/octet-stream;base64,"}, {"byteLength": 288, "uri": "data:application/octet-stream;base64,"}, {"byteLength": 288, "uri": "data:application/octet-stream;base64,"}, {"byteLength": 192, "uri": "data:application/octet-stream;base64,"}, {"byteLength": 144, "uri": "data:application/octet-stream;base64,"}, {"byteLength": 288, "uri": "data:application/octet-stream;base64,"}, {"byteLength": 288, "uri": "data:application/octet-stream;base64,"}, {"byteLength": 192, "uri": "data:application/octet-stream;base64,"}, {"byteLength": 144, "uri": "data:application/octet-stream;base64,"}], "materials": [{"doubleSided": true, "pbrMetallicRoughness": {"metallicFactor": 0.0, "roughnessFactor": 0.0}}, {"doubleSided": true, "pbrMetallicRoughness": {"metallicFactor": 0.375, "roughnessFactor": 0.0}}, {"doubleSided": true, "pbrMetallicRoughness": {"metallicFactor": 0.375, "roughnessFactor": 0.0}}, {"doubleSided": true, "pbrMetallicRoughness": {"metallicFactor": 0.375, "roughnessFactor": 0.0}}, {"doubleSided": true, "pbrMetallicRoughness": {"metallicFactor": 0.375, "roughnessFactor": 0.0}}, {"doubleSided": true, "pbrMetallicRoughness": {"metallicFactor": 0.375, "roughnessFactor": 0.0}}, {"doubleSided": true, "pbrMetallicRoughness": {"metallicFactor": 0.375, "roughnessFactor": 0.0}}, {"doubleSided": true, "pbrMetallicRoughness": {"metallicFactor": 0.375, "roughnessFactor": 0.0}}, {"doubleSided": true, "pbrMetallicRoughness": {"metallicFactor": 0.375, "roughnessFactor": 0.0}}, {"doubleSided": true, "pbrMetallicRoughness": {"metallicFactor": 0.375, "roughnessFactor": 0.0}}, {"doubleSided": true, "pbrMetallicRoughness": {"metallicFactor": 0.375, "roughnessFactor": 0.0}}, {"doubleSided": true, "pbrMetallicRoughness": {"metallicFactor": 0.375, "roughnessFactor": 0.0}}], "meshes": [{"primitives": [{"attributes": {"NORMAL": 1, "POSITION": 0, "TEXCOORD_0": 2}, "indices": 3, "material": 0, "mode": 4}]}, {"primitives": [{"attributes": {"NORMAL": 5, "POSITION": 4, "TEXCOORD_0": 6}, "indices": 7, "material": 1, "mode": 4}]}, {"primitives": [{"attributes": {"NORMAL": 9, "POSITION": 8, "TEXCOORD_0": 10}, "indices": 11, "material": 2, "mode": 4}]}, {"primitives": [{"attributes": {"NORMAL": 13, "POSITION": 12, "TEXCOORD_0": 14}, "indices": 15, "material": 3, "mode": 4}]}, {"primitives": [{"attributes": {"NORMAL": 17, "POSITION": 16, "TEXCOORD_0": 18}, "indices": 19, "material": 4, "mode": 4}]}, {"primitives": [{"attributes": {"NORMAL": 21, "POSITION": 20, "TEXCOORD_0": 22}, "indices": 23, "material": 5, "mode": 4}]}, {"primitives": [{"attributes": {"NORMAL": 25, "POSITION": 24, "TEXCOORD_0": 26}, "indices": 27, "material": 6, "mode": 4}]}, {"primitives": [{"attributes": {"NORMAL": 29, "POSITION": 28, "TEXCOORD_0": 30}, "indices": 31, "material": 7, "mode": 4}]}, {"primitives": [{"attributes": {"NORMAL": 33, "POSITION": 32, "TEXCOORD_0": 34}, "indices": 35, "material": 8, "mode": 4}]}, {"primitives": [{"attributes": {"NORMAL": 37, "POSITION": 36, "TEXCOORD_0": 38}, "indices": 39, "material": 9, "mode": 4}]}, {"primitives": [{"attributes": {"NORMAL": 41, "POSITION": 40, "TEXCOORD_0": 42}, "indices": 43, "material": 10, "mode": 4}]}, {"primitives": [{"attributes": {"NORMAL": 45, "POSITION": 44, "TEXCOORD_0": 46}, "indices": 47, "material": 11, "mode": 4}]}], "nodes": [{"mesh": 0, "name": "default", "rotation": [0.5, -0.5, 0.5, 0.5], "scale": [1.0, 1.0, 1.0], "translation": [1.1039619445800781, 2.1611075401306152, 0.10897286236286163]}, {"mesh": 1, "name": "\u041a\u0443\u0431", "rotation": [0.0, -0.0, -0.0, 1.0], "scale": [1.0, 1.0, 1.0], "translation": [1.4401003122329712, 1.0519230365753174, 1.0202882289886475]}, {"mesh": 2, "name": "\u041f\u043b\u043e\u0441\u043a\u043e\u0441\u0442\u044c", "rotation": [0.0, -0.0, -0.0, 1.0], "scale": [5.421419620513916, 1.0, 4.593684673309326], "translation": [-0.0, 0.0, 0.0]}, {"name": "\u041d\u0435\u0431\u043e", "rotation": [0.0, -0.0, -0.0, 1.0], "scale": [1.0, 1.0, 1.0], "translation": [-0.0, 0.0, 0.0]}, {"mesh": 3, "name": "\u041a\u0443\u0431", "rotation": [0.0, -0.0, -0.0, 1.0], "scale": [1.0, 1.0, 1.0], "translation": [1.4401003122329712, 1.0519230365753174, -0.7945613265037537]}, {"mesh": 4, "name": "\u041a\u0443\u0431", "rotation": [0.7071068286895752, -2.1054196608361053e-08, 2.1054196608361053e-08, 0.7071068286895752], "scale": [1.0, 1.0, 1.0], "translation": [1.4401003122329712, 2.0140128135681152, 0.11849206686019897]}, {"mesh": 5, "name": "\u041a\u0443\u0431_1", "rotation": [0.0, -0.0, -0.0, 1.0], "scale": [1.0, 1.0, 1.0], "translation": [2.7981221675872803, 1.0519227981567383, -1.0613230466842651]}, {"mesh": 6, "name": "\u041a\u0443\u0431_1", "rotation": [0.0, -0.0, -0.0, 1.0], "scale": [1.0, 1.0, 1.0], "translation": [1.716572642326355, 1.0519227981567383, 1.2843236923217773]}, {"mesh": 7, "name": "\u041a\u0443\u0431", "rotation": [0.0, -0.0, -0.0, 1.0], "scale": [1.0, 1.0, 1.0], "translation": [2.588038682937622, 2.6332290172576904, 0.0]}, {"mesh": 8, "name": "\u0426\u0438\u043b\u0438\u043d\u0434\u0440", "rotation": [-3.890400224193513e-10, -6.936824004100117e-09, 0.30070579051971436, 0.9537169337272644], "scale": [0.15000000596046448, 0.9999998807907104, 0.15000000596046448], "translation": [0.7855170369148254, 1.7744555473327637, -1.012802004814148]}, {"mesh": 9, "name": "\u0426\u0438\u043b\u0438\u043d\u0434\u0440", "rotation": [-3.890400224193513e-10, -6.936824004100117e-09, 0.30070579051971436, 0.9537169337272644], "scale": [0.15000000596046448, 0.9999998807907104, 0.15000000596046448], "translation": [0.7855170369148254, 1.7744555473327637, 1.0858290195465088]}, {"name": "\u041a\u0443\u0431_2", "rotation": [0.0, -0.0, -0.0, 1.0], "scale": [1.0, 1.0, 1.0], "translation": [2.1866965293884277, 1.0519226789474487, 1.4617891311645508]}, {"mesh": 10, "name": "\u041a\u0443\u0431", "rotation": [0.0, -0.0, -0.0, 1.0], "scale": [0.05282081663608551, 1.0, 1.9543920755386353], "translation": [2.0554211139678955, 3.0286526679992676, 0.0]}, {"mesh": 11, "name": "\u041a\u0443\u0431", "rotation": [0.0, -0.0, -0.0, 1.0], "scale": [0.05282081663608551, 1.0, 1.9543920755386353], "translation": [2.0554211139678955, 3.0286526679992676, 2.7519967555999756]}], "scenes": [{"nodes": [0, 1, 2, 3, 4, 5, 6, 7, 8, 9, 10, 11, 12, 13]}], "scene": 0}